<svg width="687" height="200" viewBox="0 0 687 200" fill="none" xmlns="http://www.w3.org/2000/svg">
<path d="M97.4998 23.3748C98.2883 23.0307 99.1394 22.853 99.9998 22.853C100.86 22.853 101.711 23.0307 102.5 23.3748C133.317 36.8448 162.713 53.3572 190.25 72.6665C191.22 73.347 191.977 74.2895 192.432 75.3839C192.887 76.4784 193.022 77.6797 192.82 78.8477C192.618 80.0157 192.088 81.1022 191.293 81.9805C190.497 82.8588 189.467 83.4927 188.325 83.8081C159.736 91.7039 132.074 102.633 105.808 116.408L105.783 116.425C104.833 116.925 103.891 117.416 102.95 117.925C102.043 118.409 101.032 118.663 100.004 118.663C98.9763 118.663 97.9645 118.409 97.0581 117.925C85.7928 111.913 74.2616 106.413 62.4998 101.441V99.5748C62.4998 98.4831 63.0581 97.5081 63.9331 96.9831C76.5112 89.3607 89.4514 82.3525 102.708 75.9831C104.202 75.2648 105.35 73.9825 105.898 72.4181C106.447 70.8537 106.351 69.1355 105.633 67.6415C104.915 66.1474 103.632 64.9999 102.068 64.4514C100.504 63.9028 98.7855 63.9982 97.2915 64.7165C83.673 71.2605 70.3796 78.4606 57.4581 86.2915C55.6198 87.4067 54.0339 88.8926 52.8015 90.6544C51.569 92.4163 50.7171 94.4155 50.2998 96.5248C37.6432 91.6548 24.7555 87.408 11.6831 83.7998C10.5406 83.4843 9.51134 82.8505 8.71542 81.9722C7.91949 81.0938 7.38973 80.0073 7.18793 78.8393C6.98613 77.6714 7.12062 76.4701 7.5757 75.3756C8.03079 74.2812 8.7877 73.3387 9.75815 72.6581C37.2931 53.3524 66.6859 36.8428 97.4998 23.3748Z" fill="#334155"/>
<path d="M108.833 128.942C129.302 118.006 150.675 108.856 172.716 101.592C173.833 113.375 174.55 125.284 174.841 137.292C174.874 138.551 174.525 139.79 173.841 140.847C173.157 141.904 172.169 142.73 171.008 143.217C147.385 153.083 124.767 165.2 103.466 179.4C102.44 180.085 101.233 180.45 99.9997 180.45C98.7659 180.45 97.5596 180.085 96.533 179.4C75.2349 165.2 52.6196 153.083 28.9997 143.217C27.838 142.732 26.8498 141.908 26.1643 140.852C25.4788 139.797 25.1281 138.559 25.158 137.3C25.4497 125.283 26.1663 113.383 27.283 101.583C34.958 104.117 42.533 106.867 49.9997 109.834V120.417C48.1991 121.454 46.6856 122.924 45.5961 124.694C44.5065 126.463 43.8752 128.476 43.7594 130.551C43.6436 132.626 44.0469 134.697 44.9327 136.577C45.8186 138.456 47.1591 140.085 48.833 141.317C48.083 144.483 46.983 147.592 45.5247 150.567C49.2913 152.342 53.033 154.184 56.7413 156.067C58.8317 151.815 60.3745 147.315 61.333 142.675C63.4404 141.738 65.2475 140.236 66.5543 138.336C67.8611 136.436 68.6166 134.211 68.7374 131.908C68.8582 129.605 68.3394 127.313 67.2385 125.286C66.1376 123.26 64.4975 121.577 62.4997 120.425V115.05C72.2339 119.303 81.7969 123.937 91.1663 128.942C93.8844 130.394 96.9183 131.153 99.9997 131.153C103.081 131.153 106.115 130.394 108.833 128.942Z" fill="#334155"/>
<path d="M37.1837 162.183C40.6837 158.691 43.4587 154.766 45.5171 150.558C49.2921 152.341 53.0337 154.183 56.7421 156.075C54.0154 161.613 50.3947 166.664 46.0254 171.025C44.8406 172.129 43.2736 172.73 41.6544 172.701C40.0352 172.673 38.4903 172.017 37.3452 170.872C36.2001 169.727 35.5442 168.182 35.5156 166.562C35.4871 164.943 36.0881 163.376 37.1921 162.191L37.1837 162.183Z" fill="#334155"/>
<path d="M231.776 114.94C226.816 114.94 222.336 114.092 218.336 112.396C214.368 110.668 211.088 108.22 208.496 105.052C205.936 101.852 204.272 98.06 203.504 93.676L213.968 92.092C215.024 96.316 217.232 99.612 220.592 101.98C223.952 104.316 227.872 105.484 232.352 105.484C235.136 105.484 237.696 105.052 240.032 104.188C242.368 103.292 244.24 102.028 245.648 100.396C247.088 98.732 247.808 96.748 247.808 94.444C247.808 93.196 247.584 92.092 247.136 91.132C246.72 90.172 246.128 89.34 245.36 88.636C244.624 87.9 243.712 87.276 242.624 86.764C241.568 86.22 240.4 85.756 239.12 85.372L221.408 80.14C219.68 79.628 217.92 78.972 216.128 78.172C214.336 77.34 212.688 76.268 211.184 74.956C209.712 73.612 208.512 71.964 207.584 70.012C206.656 68.028 206.192 65.628 206.192 62.812C206.192 58.556 207.28 54.956 209.456 52.012C211.664 49.036 214.64 46.796 218.384 45.292C222.128 43.756 226.32 42.988 230.96 42.988C235.632 43.052 239.808 43.884 243.488 45.484C247.2 47.084 250.272 49.388 252.704 52.396C255.168 55.372 256.864 58.988 257.792 63.244L247.04 65.068C246.56 62.476 245.536 60.252 243.968 58.396C242.4 56.508 240.48 55.068 238.208 54.076C235.936 53.052 233.472 52.524 230.816 52.492C228.256 52.428 225.904 52.812 223.76 53.644C221.648 54.476 219.952 55.644 218.672 57.148C217.424 58.652 216.8 60.38 216.8 62.332C216.8 64.252 217.36 65.804 218.48 66.988C219.6 68.172 220.976 69.116 222.608 69.82C224.272 70.492 225.92 71.052 227.552 71.5L240.32 75.1C241.92 75.548 243.728 76.156 245.744 76.924C247.792 77.66 249.76 78.7 251.648 80.044C253.568 81.388 255.152 83.18 256.4 85.42C257.648 87.628 258.272 90.412 258.272 93.772C258.272 97.26 257.568 100.332 256.16 102.988C254.752 105.612 252.816 107.82 250.352 109.612C247.92 111.372 245.104 112.7 241.904 113.596C238.704 114.492 235.328 114.94 231.776 114.94ZM262.741 113.5V42.94H272.773V113.5H262.741ZM302.979 114.94C297.795 114.94 293.299 113.772 289.491 111.436C285.683 109.1 282.739 105.884 280.659 101.788C278.611 97.66 277.587 92.908 277.587 87.532C277.587 82.124 278.643 77.372 280.755 73.276C282.867 69.148 285.827 65.948 289.635 63.676C293.443 61.372 297.891 60.22 302.979 60.22C308.163 60.22 312.659 61.388 316.467 63.724C320.276 66.06 323.219 69.276 325.299 73.372C327.379 77.468 328.42 82.188 328.42 87.532C328.42 92.94 327.364 97.708 325.252 101.836C323.171 105.932 320.227 109.148 316.42 111.484C312.611 113.788 308.131 114.94 302.979 114.94ZM302.979 105.484C307.939 105.484 311.635 103.82 314.067 100.492C316.531 97.132 317.764 92.812 317.764 87.532C317.764 82.124 316.516 77.804 314.019 74.572C311.555 71.308 307.875 69.676 302.979 69.676C299.619 69.676 296.851 70.444 294.675 71.98C292.499 73.484 290.883 75.58 289.827 78.268C288.771 80.924 288.243 84.012 288.243 87.532C288.243 92.972 289.491 97.324 291.987 100.588C294.483 103.852 298.147 105.484 302.979 105.484ZM344.389 113.5L325.573 61.66H335.701L349.477 100.924L363.253 61.66H373.381L354.565 113.5H344.389ZM396.426 114.94C391.274 114.94 386.746 113.82 382.842 111.58C378.97 109.308 375.946 106.156 373.77 102.124C371.626 98.06 370.554 93.356 370.554 88.012C370.554 82.348 371.61 77.436 373.722 73.276C375.866 69.116 378.842 65.9 382.65 63.628C386.458 61.356 390.89 60.22 395.946 60.22C401.226 60.22 405.722 61.452 409.434 63.916C413.146 66.348 415.914 69.82 417.738 74.332C419.594 78.844 420.33 84.204 419.946 90.412H409.914V86.764C409.85 80.748 408.698 76.3 406.458 73.42C404.25 70.54 400.874 69.1 396.33 69.1C391.306 69.1 387.53 70.684 385.002 73.852C382.474 77.02 381.21 81.596 381.21 87.58C381.21 93.276 382.474 97.692 385.002 100.828C387.53 103.932 391.178 105.484 395.946 105.484C399.082 105.484 401.786 104.78 404.058 103.372C406.362 101.932 408.154 99.884 409.434 97.228L419.274 100.348C417.258 104.988 414.202 108.588 410.106 111.148C406.01 113.676 401.45 114.94 396.426 114.94ZM377.946 90.412V82.588H414.954V90.412H377.946ZM458.973 113.5V88.012C458.973 85.996 458.797 83.932 458.445 81.82C458.125 79.676 457.485 77.692 456.525 75.868C455.597 74.044 454.269 72.572 452.541 71.452C450.845 70.332 448.621 69.772 445.869 69.772C444.077 69.772 442.381 70.076 440.781 70.684C439.181 71.26 437.773 72.204 436.557 73.516C435.373 74.828 434.429 76.556 433.725 78.7C433.053 80.844 432.717 83.452 432.717 86.524L426.477 84.172C426.477 79.468 427.357 75.324 429.117 71.74C430.877 68.124 433.405 65.308 436.701 63.292C439.997 61.276 443.981 60.268 448.653 60.268C452.237 60.268 455.245 60.844 457.677 61.996C460.109 63.148 462.077 64.668 463.581 66.556C465.117 68.412 466.285 70.444 467.085 72.652C467.885 74.86 468.429 77.02 468.717 79.132C469.005 81.244 469.149 83.1 469.149 84.7V113.5H458.973ZM422.541 113.5V61.66H431.517V76.636H432.717V113.5H422.541ZM477.955 39.58H487.555L494.707 48.076L501.859 39.58H511.459L499.027 53.98H490.387L477.955 39.58ZM494.755 114.892C488.451 114.892 483.315 113.5 479.347 110.716C475.379 107.932 472.947 104.012 472.051 98.956L482.323 97.372C482.963 100.06 484.435 102.188 486.739 103.756C489.075 105.292 491.971 106.06 495.427 106.06C498.563 106.06 501.011 105.42 502.771 104.14C504.563 102.86 505.459 101.1 505.459 98.86C505.459 97.548 505.139 96.492 504.499 95.692C503.891 94.86 502.595 94.076 500.611 93.34C498.627 92.604 495.603 91.692 491.539 90.604C487.091 89.452 483.555 88.22 480.931 86.908C478.339 85.564 476.483 84.012 475.363 82.252C474.275 80.46 473.731 78.3 473.731 75.772C473.731 72.636 474.563 69.9 476.227 67.564C477.891 65.228 480.227 63.42 483.235 62.14C486.275 60.86 489.827 60.22 493.891 60.22C497.859 60.22 501.395 60.844 504.499 62.092C507.603 63.34 510.115 65.116 512.035 67.42C513.955 69.692 515.107 72.364 515.491 75.436L505.219 77.308C504.867 74.812 503.699 72.844 501.715 71.404C499.731 69.964 497.155 69.18 493.987 69.052C490.947 68.924 488.483 69.436 486.595 70.588C484.707 71.708 483.763 73.26 483.763 75.244C483.763 76.396 484.115 77.372 484.819 78.172C485.555 78.972 486.963 79.74 489.043 80.476C491.123 81.212 494.195 82.092 498.259 83.116C502.611 84.236 506.067 85.484 508.627 86.86C511.187 88.204 513.011 89.82 514.099 91.708C515.219 93.564 515.779 95.82 515.779 98.476C515.779 103.596 513.907 107.612 510.163 110.524C506.451 113.436 501.315 114.892 494.755 114.892ZM525.104 39.58H534.704L541.856 48.076L549.008 39.58H558.608L546.176 53.98H537.536L525.104 39.58ZM541.856 114.94C536.544 114.94 532.032 113.756 528.32 111.388C524.608 109.02 521.76 105.772 519.776 101.644C517.824 97.516 516.832 92.828 516.8 87.58C516.832 82.236 517.856 77.516 519.872 73.42C521.888 69.292 524.768 66.06 528.512 63.724C532.256 61.388 536.752 60.22 542 60.22C547.664 60.22 552.496 61.628 556.496 64.444C560.528 67.26 563.184 71.116 564.464 76.012L554.48 78.892C553.488 75.98 551.856 73.724 549.584 72.124C547.344 70.492 544.768 69.676 541.856 69.676C538.56 69.676 535.856 70.46 533.744 72.028C531.632 73.564 530.064 75.676 529.04 78.364C528.016 81.052 527.488 84.124 527.456 87.58C527.488 92.924 528.704 97.244 531.104 100.54C533.536 103.836 537.12 105.484 541.856 105.484C545.088 105.484 547.696 104.748 549.68 103.276C551.696 101.772 553.232 99.628 554.288 96.844L564.464 99.244C562.768 104.3 559.968 108.188 556.064 110.908C552.16 113.596 547.424 114.94 541.856 114.94ZM567.076 53.164V43.42H577.108V53.164H567.076ZM567.076 113.5V61.66H577.108V113.5H567.076ZM621.186 113.5V88.012C621.186 85.996 621.01 83.932 620.658 81.82C620.338 79.676 619.698 77.692 618.738 75.868C617.81 74.044 616.482 72.572 614.754 71.452C613.058 70.332 610.834 69.772 608.082 69.772C606.29 69.772 604.594 70.076 602.994 70.684C601.394 71.26 599.986 72.204 598.77 73.516C597.586 74.828 596.642 76.556 595.938 78.7C595.266 80.844 594.93 83.452 594.93 86.524L588.69 84.172C588.69 79.468 589.57 75.324 591.33 71.74C593.09 68.124 595.618 65.308 598.914 63.292C602.21 61.276 606.194 60.268 610.866 60.268C614.45 60.268 617.458 60.844 619.89 61.996C622.322 63.148 624.29 64.668 625.794 66.556C627.33 68.412 628.498 70.444 629.298 72.652C630.098 74.86 630.642 77.02 630.93 79.132C631.218 81.244 631.362 83.1 631.362 84.7V113.5H621.186ZM584.754 113.5V61.66H593.73V76.636H594.93V113.5H584.754ZM651.785 114.94C647.945 114.94 644.729 114.236 642.137 112.828C639.545 111.388 637.577 109.5 636.233 107.164C634.921 104.796 634.265 102.204 634.265 99.388C634.265 96.764 634.729 94.46 635.657 92.476C636.585 90.492 637.961 88.812 639.785 87.436C641.609 86.028 643.849 84.892 646.505 84.028C648.809 83.356 651.417 82.764 654.329 82.252C657.241 81.74 660.297 81.26 663.497 80.812C666.729 80.364 669.929 79.916 673.097 79.468L669.449 81.484C669.513 77.42 668.649 74.412 666.857 72.46C665.097 70.476 662.057 69.484 657.737 69.484C655.017 69.484 652.521 70.124 650.249 71.404C647.977 72.652 646.393 74.732 645.497 77.644L636.137 74.764C637.417 70.316 639.849 66.78 643.433 64.156C647.049 61.532 651.849 60.22 657.833 60.22C662.473 60.22 666.505 61.02 669.929 62.62C673.385 64.188 675.913 66.684 677.513 70.108C678.345 71.804 678.857 73.596 679.049 75.484C679.241 77.372 679.337 79.404 679.337 81.58V113.5H670.457V101.644L672.185 103.18C670.041 107.148 667.305 110.108 663.977 112.06C660.681 113.98 656.617 114.94 651.785 114.94ZM653.561 106.732C656.409 106.732 658.857 106.236 660.905 105.244C662.953 104.22 664.601 102.924 665.849 101.356C667.097 99.788 667.913 98.156 668.297 96.46C668.841 94.924 669.145 93.196 669.209 91.276C669.305 89.356 669.353 87.82 669.353 86.668L672.617 87.868C669.449 88.348 666.569 88.78 663.977 89.164C661.385 89.548 659.033 89.932 656.921 90.316C654.841 90.668 652.985 91.1 651.353 91.612C649.977 92.092 648.745 92.668 647.657 93.34C646.601 94.012 645.753 94.828 645.113 95.788C644.505 96.748 644.201 97.916 644.201 99.292C644.201 100.636 644.537 101.884 645.209 103.036C645.881 104.156 646.905 105.052 648.281 105.724C649.657 106.396 651.417 106.732 653.561 106.732Z" fill="#334155"/>
<path d="M211.48 169.5V123.42H218.168V144.924L237.464 123.42H245.784L225.4 145.916L247.288 169.5H238.712L218.168 147.484V169.5H211.48ZM259.758 170.46C256.302 170.46 253.305 169.681 250.766 168.124C248.227 166.567 246.265 164.423 244.878 161.692C243.513 158.94 242.83 155.772 242.83 152.188C242.83 148.583 243.534 145.415 244.942 142.684C246.35 139.932 248.323 137.799 250.862 136.284C253.401 134.748 256.366 133.98 259.758 133.98C263.214 133.98 266.211 134.759 268.75 136.316C271.289 137.873 273.251 140.017 274.638 142.748C276.025 145.479 276.718 148.625 276.718 152.188C276.718 155.793 276.014 158.972 274.606 161.724C273.219 164.455 271.257 166.599 268.718 168.156C266.179 169.692 263.193 170.46 259.758 170.46ZM259.758 164.156C263.065 164.156 265.529 163.047 267.15 160.828C268.793 158.588 269.614 155.708 269.614 152.188C269.614 148.583 268.782 145.703 267.118 143.548C265.475 141.372 263.022 140.284 259.758 140.284C257.518 140.284 255.673 140.796 254.222 141.82C252.771 142.823 251.694 144.22 250.99 146.012C250.286 147.783 249.934 149.841 249.934 152.188C249.934 155.815 250.766 158.716 252.43 160.892C254.094 163.068 256.537 164.156 259.758 164.156ZM279.27 169.5V134.94H285.222V143.324L284.39 142.236C284.817 141.127 285.371 140.113 286.054 139.196C286.737 138.257 287.526 137.489 288.422 136.892C289.297 136.252 290.267 135.761 291.334 135.42C292.422 135.057 293.531 134.844 294.662 134.78C295.793 134.695 296.881 134.748 297.926 134.94V141.212C296.795 140.913 295.537 140.828 294.15 140.956C292.785 141.084 291.526 141.521 290.374 142.268C289.286 142.972 288.422 143.825 287.782 144.828C287.163 145.831 286.715 146.951 286.438 148.188C286.161 149.404 286.022 150.695 286.022 152.06V169.5H279.27ZM308.3 170.46C305.74 170.46 303.596 169.991 301.868 169.052C300.14 168.092 298.828 166.833 297.932 165.276C297.057 163.697 296.62 161.969 296.62 160.092C296.62 158.343 296.929 156.807 297.548 155.484C298.167 154.161 299.084 153.041 300.3 152.124C301.516 151.185 303.009 150.428 304.78 149.852C306.316 149.404 308.055 149.009 309.996 148.668C311.937 148.327 313.975 148.007 316.108 147.708C318.263 147.409 320.396 147.111 322.508 146.812L320.076 148.156C320.119 145.447 319.543 143.441 318.348 142.14C317.175 140.817 315.148 140.156 312.268 140.156C310.455 140.156 308.791 140.583 307.276 141.436C305.761 142.268 304.705 143.655 304.108 145.596L297.868 143.676C298.721 140.711 300.343 138.353 302.732 136.604C305.143 134.855 308.343 133.98 312.332 133.98C315.425 133.98 318.113 134.513 320.396 135.58C322.7 136.625 324.385 138.289 325.452 140.572C326.007 141.703 326.348 142.897 326.476 144.156C326.604 145.415 326.668 146.769 326.668 148.22V169.5H320.748V161.596L321.9 162.62C320.471 165.265 318.647 167.239 316.428 168.54C314.231 169.82 311.521 170.46 308.3 170.46ZM309.484 164.988C311.383 164.988 313.015 164.657 314.38 163.996C315.745 163.313 316.844 162.449 317.676 161.404C318.508 160.359 319.052 159.271 319.308 158.14C319.671 157.116 319.873 155.964 319.916 154.684C319.98 153.404 320.012 152.38 320.012 151.612L322.188 152.412C320.076 152.732 318.156 153.02 316.428 153.276C314.7 153.532 313.132 153.788 311.724 154.044C310.337 154.279 309.1 154.567 308.012 154.908C307.095 155.228 306.273 155.612 305.548 156.06C304.844 156.508 304.279 157.052 303.852 157.692C303.447 158.332 303.244 159.111 303.244 160.028C303.244 160.924 303.468 161.756 303.916 162.524C304.364 163.271 305.047 163.868 305.964 164.316C306.881 164.764 308.055 164.988 309.484 164.988ZM330.466 169.5L330.498 123.42H337.282V151.58L350.85 134.94H359.362L345.026 152.22L360.834 169.5H351.746L337.282 152.86V169.5H330.466ZM373.045 169.5V168.444L392.661 140.924H374.837V134.94H403.285V136.028L383.701 163.516H402.325V169.5H373.045ZM413.65 170.46C411.09 170.46 408.946 169.991 407.218 169.052C405.49 168.092 404.178 166.833 403.282 165.276C402.407 163.697 401.97 161.969 401.97 160.092C401.97 158.343 402.279 156.807 402.898 155.484C403.517 154.161 404.434 153.041 405.65 152.124C406.866 151.185 408.359 150.428 410.13 149.852C411.666 149.404 413.405 149.009 415.346 148.668C417.287 148.327 419.325 148.007 421.458 147.708C423.613 147.409 425.746 147.111 427.858 146.812L425.426 148.156C425.469 145.447 424.893 143.441 423.698 142.14C422.525 140.817 420.498 140.156 417.618 140.156C415.805 140.156 414.141 140.583 412.626 141.436C411.111 142.268 410.055 143.655 409.458 145.596L403.218 143.676C404.071 140.711 405.693 138.353 408.082 136.604C410.493 134.855 413.693 133.98 417.682 133.98C420.775 133.98 423.463 134.513 425.746 135.58C428.05 136.625 429.735 138.289 430.802 140.572C431.357 141.703 431.698 142.897 431.826 144.156C431.954 145.415 432.018 146.769 432.018 148.22V169.5H426.098V161.596L427.25 162.62C425.821 165.265 423.997 167.239 421.778 168.54C419.581 169.82 416.871 170.46 413.65 170.46ZM414.834 164.988C416.733 164.988 418.365 164.657 419.73 163.996C421.095 163.313 422.194 162.449 423.026 161.404C423.858 160.359 424.402 159.271 424.658 158.14C425.021 157.116 425.223 155.964 425.266 154.684C425.33 153.404 425.362 152.38 425.362 151.612L427.538 152.412C425.426 152.732 423.506 153.02 421.778 153.276C420.05 153.532 418.482 153.788 417.074 154.044C415.687 154.279 414.45 154.567 413.362 154.908C412.445 155.228 411.623 155.612 410.898 156.06C410.194 156.508 409.629 157.052 409.202 157.692C408.797 158.332 408.594 159.111 408.594 160.028C408.594 160.924 408.818 161.756 409.266 162.524C409.714 163.271 410.397 163.868 411.314 164.316C412.231 164.764 413.405 164.988 414.834 164.988ZM452.513 169.5V123.42H459.201V144.924L478.497 123.42H486.817L466.433 145.916L488.321 169.5H479.745L459.201 147.484V169.5H452.513ZM500.79 170.46C497.334 170.46 494.337 169.681 491.798 168.124C489.26 166.567 487.297 164.423 485.91 161.692C484.545 158.94 483.862 155.772 483.862 152.188C483.862 148.583 484.566 145.415 485.974 142.684C487.382 139.932 489.356 137.799 491.894 136.284C494.433 134.748 497.398 133.98 500.79 133.98C504.246 133.98 507.244 134.759 509.782 136.316C512.321 137.873 514.284 140.017 515.67 142.748C517.057 145.479 517.75 148.625 517.75 152.188C517.75 155.793 517.046 158.972 515.638 161.724C514.252 164.455 512.289 166.599 509.75 168.156C507.212 169.692 504.225 170.46 500.79 170.46ZM500.79 164.156C504.097 164.156 506.561 163.047 508.182 160.828C509.825 158.588 510.646 155.708 510.646 152.188C510.646 148.583 509.814 145.703 508.15 143.548C506.508 141.372 504.054 140.284 500.79 140.284C498.55 140.284 496.705 140.796 495.254 141.82C493.804 142.823 492.726 144.22 492.022 146.012C491.318 147.783 490.966 149.841 490.966 152.188C490.966 155.815 491.798 158.716 493.462 160.892C495.126 163.068 497.569 164.156 500.79 164.156ZM520.303 169.5V134.94H526.255V143.324L525.423 142.236C525.849 141.127 526.404 140.113 527.087 139.196C527.769 138.257 528.559 137.489 529.455 136.892C530.329 136.252 531.3 135.761 532.367 135.42C533.455 135.057 534.564 134.844 535.695 134.78C536.825 134.695 537.913 134.748 538.959 134.94V141.212C537.828 140.913 536.569 140.828 535.183 140.956C533.817 141.084 532.559 141.521 531.407 142.268C530.319 142.972 529.455 143.825 528.815 144.828C528.196 145.831 527.748 146.951 527.471 148.188C527.193 149.404 527.055 150.695 527.055 152.06V169.5H520.303ZM549.332 170.46C546.772 170.46 544.628 169.991 542.9 169.052C541.172 168.092 539.86 166.833 538.964 165.276C538.09 163.697 537.652 161.969 537.652 160.092C537.652 158.343 537.962 156.807 538.58 155.484C539.199 154.161 540.116 153.041 541.332 152.124C542.548 151.185 544.042 150.428 545.812 149.852C547.348 149.404 549.087 149.009 551.028 148.668C552.97 148.327 555.007 148.007 557.14 147.708C559.295 147.409 561.428 147.111 563.541 146.812L561.108 148.156C561.151 145.447 560.575 143.441 559.381 142.14C558.207 140.817 556.181 140.156 553.3 140.156C551.487 140.156 549.823 140.583 548.308 141.436C546.794 142.268 545.738 143.655 545.14 145.596L538.9 143.676C539.754 140.711 541.375 138.353 543.764 136.604C546.175 134.855 549.375 133.98 553.365 133.98C556.458 133.98 559.146 134.513 561.428 135.58C563.733 136.625 565.418 138.289 566.485 140.572C567.039 141.703 567.381 142.897 567.508 144.156C567.637 145.415 567.701 146.769 567.701 148.22V169.5H561.781V161.596L562.933 162.62C561.503 165.265 559.679 167.239 557.461 168.54C555.263 169.82 552.554 170.46 549.332 170.46ZM550.516 164.988C552.415 164.988 554.047 164.657 555.413 163.996C556.778 163.313 557.877 162.449 558.708 161.404C559.54 160.359 560.084 159.271 560.34 158.14C560.703 157.116 560.906 155.964 560.948 154.684C561.013 153.404 561.045 152.38 561.045 151.612L563.221 152.412C561.109 152.732 559.189 153.02 557.461 153.276C555.733 153.532 554.164 153.788 552.757 154.044C551.37 154.279 550.132 154.567 549.044 154.908C548.127 155.228 547.306 155.612 546.58 156.06C545.876 156.508 545.311 157.052 544.884 157.692C544.479 158.332 544.276 159.111 544.276 160.028C544.276 160.924 544.5 161.756 544.948 162.524C545.396 163.271 546.079 163.868 546.996 164.316C547.914 164.764 549.087 164.988 550.516 164.988ZM571.498 169.5L571.53 123.42H578.314V151.58L591.882 134.94H600.394L586.058 152.22L601.866 169.5H592.778L578.314 152.86V169.5H571.498ZM614.996 170.46C611.54 170.46 608.542 169.681 606.004 168.124C603.465 166.567 601.502 164.423 600.116 161.692C598.75 158.94 598.068 155.772 598.068 152.188C598.068 148.583 598.772 145.415 600.18 142.684C601.588 139.932 603.561 137.799 606.1 136.284C608.638 134.748 611.604 133.98 614.996 133.98C618.452 133.98 621.449 134.759 623.988 136.316C626.526 137.873 628.489 140.017 629.876 142.748C631.262 145.479 631.956 148.625 631.956 152.188C631.956 155.793 631.252 158.972 629.844 161.724C628.457 164.455 626.494 166.599 623.956 168.156C621.417 169.692 618.43 170.46 614.996 170.46ZM614.996 164.156C618.302 164.156 620.766 163.047 622.388 160.828C624.03 158.588 624.852 155.708 624.852 152.188C624.852 148.583 624.02 145.703 622.356 143.548C620.713 141.372 618.26 140.284 614.996 140.284C612.756 140.284 610.91 140.796 609.46 141.82C608.009 142.823 606.932 144.22 606.228 146.012C605.524 147.783 605.172 149.841 605.172 152.188C605.172 155.815 606.004 158.716 607.668 160.892C609.332 163.068 611.774 164.156 614.996 164.156ZM675.915 169.5L675.947 147.964C675.947 145.468 675.307 143.527 674.028 142.14C672.747 140.732 671.062 140.028 668.971 140.028C667.691 140.028 666.518 140.327 665.451 140.924C664.406 141.5 663.553 142.375 662.891 143.548C662.251 144.7 661.931 146.151 661.931 147.9L658.699 146.268C658.657 143.836 659.169 141.703 660.235 139.868C661.323 138.033 662.795 136.615 664.651 135.612C666.507 134.588 668.587 134.076 670.891 134.076C674.625 134.076 677.515 135.196 679.563 137.436C681.611 139.676 682.635 142.652 682.635 146.364L682.604 169.5H675.915ZM634.475 169.5V134.94H640.427V144.924H641.195V169.5H634.475ZM655.211 169.5L655.243 148.092C655.243 145.575 654.603 143.601 653.323 142.172C652.065 140.743 650.369 140.028 648.235 140.028C646.123 140.028 644.417 140.753 643.115 142.204C641.835 143.655 641.195 145.553 641.195 147.9L637.995 145.852C637.995 143.591 638.539 141.575 639.627 139.804C640.715 138.033 642.187 136.636 644.043 135.612C645.899 134.588 648.001 134.076 650.347 134.076C652.801 134.076 654.891 134.599 656.619 135.644C658.347 136.668 659.659 138.108 660.555 139.964C661.473 141.82 661.931 143.975 661.931 146.428L661.899 169.5H655.211Z" fill="#334155"/>
</svg>
