<svg width="693" height="200" viewBox="0 0 693 200" fill="none" xmlns="http://www.w3.org/2000/svg">
<path d="M97.4998 23.3748C98.2883 23.0307 99.1394 22.853 99.9998 22.853C100.86 22.853 101.711 23.0307 102.5 23.3748C133.317 36.8448 162.713 53.3572 190.25 72.6665C191.22 73.347 191.977 74.2895 192.432 75.3839C192.887 76.4784 193.022 77.6797 192.82 78.8477C192.618 80.0157 192.088 81.1022 191.293 81.9805C190.497 82.8588 189.467 83.4927 188.325 83.8081C159.736 91.7039 132.074 102.633 105.808 116.408L105.783 116.425C104.833 116.925 103.891 117.416 102.95 117.925C102.043 118.409 101.032 118.663 100.004 118.663C98.9763 118.663 97.9645 118.409 97.0581 117.925C85.7928 111.913 74.2616 106.413 62.4998 101.441V99.5748C62.4998 98.4831 63.0581 97.5081 63.9331 96.9831C76.5112 89.3607 89.4514 82.3525 102.708 75.9831C104.202 75.2648 105.35 73.9825 105.898 72.4181C106.447 70.8537 106.351 69.1355 105.633 67.6415C104.915 66.1474 103.632 64.9999 102.068 64.4514C100.504 63.9028 98.7855 63.9982 97.2915 64.7165C83.673 71.2605 70.3796 78.4606 57.4581 86.2915C55.6198 87.4067 54.0339 88.8926 52.8015 90.6544C51.569 92.4163 50.7171 94.4155 50.2998 96.5248C37.6432 91.6548 24.7555 87.408 11.6831 83.7998C10.5406 83.4843 9.51134 82.8505 8.71542 81.9722C7.91949 81.0938 7.38973 80.0073 7.18793 78.8393C6.98613 77.6714 7.12062 76.4701 7.5757 75.3756C8.03079 74.2812 8.7877 73.3387 9.75815 72.6581C37.2931 53.3524 66.6859 36.8428 97.4998 23.3748Z" fill="url(#paint0_linear_334_238)"/>
<path d="M108.833 128.942C129.302 118.006 150.675 108.856 172.716 101.592C173.833 113.375 174.55 125.284 174.841 137.292C174.874 138.551 174.525 139.79 173.841 140.847C173.157 141.904 172.169 142.73 171.008 143.217C147.385 153.083 124.767 165.2 103.466 179.4C102.44 180.085 101.233 180.45 99.9997 180.45C98.7659 180.45 97.5596 180.085 96.533 179.4C75.2349 165.2 52.6196 153.083 28.9997 143.217C27.838 142.732 26.8498 141.908 26.1643 140.852C25.4788 139.797 25.1281 138.559 25.158 137.3C25.4497 125.283 26.1663 113.383 27.283 101.583C34.958 104.117 42.533 106.867 49.9997 109.834V120.417C48.1991 121.454 46.6856 122.924 45.5961 124.694C44.5065 126.463 43.8752 128.476 43.7594 130.551C43.6436 132.626 44.0469 134.697 44.9327 136.577C45.8186 138.456 47.1591 140.085 48.833 141.317C48.083 144.483 46.983 147.592 45.5247 150.567C49.2913 152.342 53.033 154.184 56.7413 156.067C58.8317 151.815 60.3745 147.315 61.333 142.675C63.4404 141.738 65.2475 140.236 66.5543 138.336C67.8611 136.436 68.6166 134.211 68.7374 131.908C68.8582 129.605 68.3394 127.313 67.2385 125.286C66.1376 123.26 64.4975 121.577 62.4997 120.425V115.05C72.2339 119.303 81.7969 123.937 91.1663 128.942C93.8844 130.394 96.9183 131.153 99.9997 131.153C103.081 131.153 106.115 130.394 108.833 128.942Z" fill="url(#paint1_linear_334_238)"/>
<path d="M37.1837 162.183C40.6837 158.691 43.4587 154.766 45.5171 150.558C49.2921 152.341 53.0337 154.183 56.7421 156.075C54.0154 161.613 50.3947 166.664 46.0254 171.025C44.8406 172.129 43.2736 172.73 41.6544 172.701C40.0352 172.673 38.4903 172.017 37.3452 170.872C36.2001 169.727 35.5442 168.182 35.5156 166.562C35.4871 164.943 36.0881 163.376 37.1921 162.191L37.1837 162.183Z" fill="url(#paint2_linear_334_238)"/>
<path d="M232.304 114.94C227.248 114.94 222.688 114.06 218.624 112.3C214.592 110.54 211.264 108.028 208.64 104.764C206.048 101.468 204.4 97.564 203.696 93.052L215.696 91.228C216.72 95.324 218.816 98.492 221.984 100.732C225.184 102.972 228.864 104.092 233.024 104.092C235.488 104.092 237.808 103.708 239.984 102.94C242.16 102.172 243.92 101.052 245.264 99.58C246.64 98.108 247.328 96.3 247.328 94.156C247.328 93.196 247.168 92.316 246.848 91.516C246.528 90.684 246.048 89.948 245.408 89.308C244.8 88.668 244 88.092 243.008 87.58C242.048 87.036 240.928 86.572 239.648 86.188L221.792 80.908C220.256 80.46 218.592 79.868 216.8 79.132C215.04 78.364 213.36 77.324 211.76 76.012C210.192 74.668 208.896 72.972 207.872 70.924C206.88 68.844 206.384 66.284 206.384 63.244C206.384 58.796 207.504 55.068 209.744 52.06C212.016 49.02 215.056 46.748 218.864 45.244C222.704 43.74 226.96 43.004 231.632 43.036C236.368 43.068 240.592 43.884 244.304 45.484C248.016 47.052 251.12 49.34 253.616 52.348C256.112 55.356 257.872 58.988 258.896 63.244L246.464 65.404C245.952 62.972 244.96 60.908 243.488 59.212C242.048 57.484 240.272 56.172 238.16 55.276C236.08 54.38 233.856 53.9 231.488 53.836C229.184 53.804 227.04 54.156 225.056 54.892C223.104 55.596 221.52 56.62 220.304 57.964C219.12 59.308 218.528 60.876 218.528 62.668C218.528 64.364 219.04 65.756 220.064 66.844C221.088 67.9 222.352 68.748 223.856 69.388C225.392 69.996 226.944 70.508 228.512 70.924L240.896 74.38C242.592 74.828 244.496 75.436 246.608 76.204C248.72 76.972 250.752 78.044 252.704 79.42C254.656 80.796 256.256 82.604 257.504 84.844C258.784 87.084 259.424 89.932 259.424 93.388C259.424 96.972 258.672 100.124 257.168 102.844C255.696 105.532 253.696 107.772 251.168 109.564C248.64 111.356 245.744 112.7 242.48 113.596C239.248 114.492 235.856 114.94 232.304 114.94ZM264.054 113.5V42.94H275.622V113.5H264.054ZM306.176 114.94C300.992 114.94 296.464 113.772 292.592 111.436C288.72 109.1 285.712 105.884 283.568 101.788C281.456 97.66 280.4 92.924 280.4 87.58C280.4 82.14 281.488 77.372 283.664 73.276C285.84 69.18 288.864 65.98 292.736 63.676C296.608 61.372 301.088 60.22 306.176 60.22C311.392 60.22 315.936 61.388 319.808 63.724C323.68 66.06 326.688 69.292 328.832 73.42C330.976 77.516 332.048 82.236 332.048 87.58C332.048 92.956 330.96 97.708 328.784 101.836C326.64 105.932 323.632 109.148 319.76 111.484C315.888 113.788 311.36 114.94 306.176 114.94ZM306.176 104.092C310.784 104.092 314.208 102.556 316.448 99.484C318.688 96.412 319.808 92.444 319.808 87.58C319.808 82.556 318.672 78.556 316.4 75.58C314.128 72.572 310.72 71.068 306.176 71.068C303.072 71.068 300.512 71.772 298.496 73.18C296.512 74.556 295.04 76.492 294.08 78.988C293.12 81.452 292.64 84.316 292.64 87.58C292.64 92.604 293.776 96.62 296.048 99.628C298.352 102.604 301.728 104.092 306.176 104.092ZM348.045 113.5L329.229 61.66H340.797L353.853 99.244L366.861 61.66H378.477L359.661 113.5H348.045ZM402.064 114.94C396.816 114.94 392.208 113.804 388.24 111.532C384.272 109.26 381.168 106.108 378.928 102.076C376.72 98.044 375.616 93.404 375.616 88.156C375.616 82.492 376.704 77.58 378.88 73.42C381.056 69.228 384.08 65.98 387.952 63.676C391.824 61.372 396.304 60.22 401.392 60.22C406.768 60.22 411.328 61.484 415.072 64.012C418.848 66.508 421.648 70.044 423.472 74.62C425.296 79.196 425.984 84.588 425.536 90.796H414.064V86.572C414.032 80.94 413.04 76.828 411.088 74.236C409.136 71.644 406.064 70.348 401.872 70.348C397.136 70.348 393.616 71.82 391.312 74.764C389.008 77.676 387.856 81.948 387.856 87.58C387.856 92.828 389.008 96.892 391.312 99.772C393.616 102.652 396.976 104.092 401.392 104.092C404.24 104.092 406.688 103.468 408.736 102.22C410.816 100.94 412.416 99.1 413.536 96.7L424.96 100.156C422.976 104.828 419.904 108.46 415.744 111.052C411.616 113.644 407.056 114.94 402.064 114.94ZM384.208 90.796V82.06H419.872V90.796H384.208ZM463.976 113.5V88.54C463.976 86.908 463.864 85.1 463.64 83.116C463.416 81.132 462.888 79.228 462.056 77.404C461.256 75.548 460.04 74.028 458.408 72.844C456.808 71.66 454.632 71.068 451.88 71.068C450.408 71.068 448.952 71.308 447.512 71.788C446.072 72.268 444.76 73.1 443.576 74.284C442.424 75.436 441.496 77.036 440.792 79.084C440.088 81.1 439.736 83.692 439.736 86.86L432.872 83.932C432.872 79.516 433.72 75.516 435.416 71.932C437.144 68.348 439.672 65.5 443 63.388C446.328 61.244 450.424 60.172 455.288 60.172C459.128 60.172 462.296 60.812 464.792 62.092C467.288 63.372 469.272 65.004 470.744 66.988C472.216 68.972 473.304 71.084 474.008 73.324C474.712 75.564 475.16 77.692 475.352 79.708C475.576 81.692 475.688 83.308 475.688 84.556V113.5H463.976ZM428.024 113.5V61.66H438.344V77.74H439.736V113.5H428.024ZM483.462 39.1H494.262L501.414 47.644L508.566 39.1H519.366L506.262 54.22H496.566L483.462 39.1ZM501.51 114.94C495.11 114.94 489.91 113.5 485.91 110.62C481.91 107.74 479.478 103.692 478.614 98.476L490.422 96.652C491.03 99.212 492.374 101.228 494.454 102.7C496.534 104.172 499.158 104.908 502.326 104.908C505.11 104.908 507.254 104.364 508.758 103.276C510.294 102.156 511.062 100.636 511.062 98.716C511.062 97.532 510.774 96.588 510.198 95.884C509.654 95.148 508.438 94.444 506.55 93.772C504.662 93.1 501.766 92.252 497.862 91.228C493.51 90.076 490.054 88.844 487.494 87.532C484.934 86.188 483.094 84.604 481.974 82.78C480.854 80.956 480.294 78.748 480.294 76.156C480.294 72.924 481.142 70.108 482.838 67.708C484.534 65.308 486.902 63.468 489.942 62.188C492.982 60.876 496.566 60.22 500.694 60.22C504.726 60.22 508.294 60.844 511.398 62.092C514.534 63.34 517.062 65.116 518.982 67.42C520.902 69.724 522.086 72.428 522.534 75.532L510.726 77.644C510.438 75.436 509.43 73.692 507.702 72.412C506.006 71.132 503.734 70.412 500.886 70.252C498.166 70.092 495.974 70.508 494.31 71.5C492.646 72.46 491.814 73.82 491.814 75.58C491.814 76.572 492.15 77.42 492.822 78.124C493.494 78.828 494.838 79.532 496.854 80.236C498.902 80.94 501.942 81.804 505.974 82.828C510.102 83.884 513.398 85.1 515.862 86.476C518.358 87.82 520.15 89.436 521.238 91.324C522.358 93.212 522.918 95.5 522.918 98.188C522.918 103.404 521.014 107.5 517.206 110.476C513.43 113.452 508.198 114.94 501.51 114.94ZM531.271 39.1H542.071L549.223 47.644L556.375 39.1H567.175L554.071 54.22H544.375L531.271 39.1ZM549.223 114.94C543.879 114.94 539.319 113.756 535.543 111.388C531.767 108.988 528.871 105.724 526.855 101.596C524.871 97.468 523.863 92.796 523.831 87.58C523.863 82.268 524.903 77.564 526.951 73.468C529.031 69.34 531.975 66.108 535.783 63.772C539.591 61.404 544.119 60.22 549.367 60.22C555.255 60.22 560.231 61.708 564.295 64.684C568.391 67.628 571.063 71.66 572.311 76.78L560.791 79.9C559.895 77.116 558.407 74.956 556.327 73.42C554.247 71.852 551.879 71.068 549.223 71.068C546.215 71.068 543.735 71.788 541.783 73.228C539.831 74.636 538.391 76.588 537.463 79.084C536.535 81.58 536.071 84.412 536.071 87.58C536.071 92.508 537.175 96.492 539.383 99.532C541.591 102.572 544.871 104.092 549.223 104.092C552.295 104.092 554.711 103.388 556.471 101.98C558.263 100.572 559.607 98.54 560.503 95.884L572.311 98.524C570.711 103.804 567.911 107.868 563.911 110.716C559.911 113.532 555.015 114.94 549.223 114.94ZM574.764 53.788V43.18H586.332V53.788H574.764ZM574.764 113.5V61.66H586.332V113.5H574.764ZM629.846 113.5V88.54C629.846 86.908 629.734 85.1 629.51 83.116C629.286 81.132 628.758 79.228 627.926 77.404C627.126 75.548 625.91 74.028 624.278 72.844C622.678 71.66 620.502 71.068 617.75 71.068C616.278 71.068 614.822 71.308 613.382 71.788C611.942 72.268 610.63 73.1 609.446 74.284C608.294 75.436 607.366 77.036 606.662 79.084C605.958 81.1 605.606 83.692 605.606 86.86L598.742 83.932C598.742 79.516 599.59 75.516 601.286 71.932C603.014 68.348 605.542 65.5 608.87 63.388C612.198 61.244 616.294 60.172 621.158 60.172C624.998 60.172 628.166 60.812 630.662 62.092C633.158 63.372 635.142 65.004 636.614 66.988C638.086 68.972 639.174 71.084 639.878 73.324C640.582 75.564 641.03 77.692 641.222 79.708C641.446 81.692 641.558 83.308 641.558 84.556V113.5H629.846ZM593.894 113.5V61.66H604.214V77.74H605.606V113.5H593.894ZM661.86 114.94C658.116 114.94 654.948 114.236 652.356 112.828C649.764 111.388 647.796 109.484 646.452 107.116C645.14 104.748 644.484 102.14 644.484 99.292C644.484 96.796 644.9 94.556 645.732 92.572C646.564 90.556 647.844 88.828 649.572 87.388C651.3 85.916 653.54 84.716 656.292 83.788C658.372 83.116 660.804 82.508 663.588 81.964C666.404 81.42 669.444 80.924 672.708 80.476C676.004 79.996 679.444 79.484 683.028 78.94L678.9 81.292C678.932 77.708 678.132 75.068 676.5 73.372C674.868 71.676 672.116 70.828 668.244 70.828C665.908 70.828 663.652 71.372 661.476 72.46C659.3 73.548 657.78 75.42 656.916 78.076L646.356 74.764C647.636 70.38 650.068 66.86 653.652 64.204C657.268 61.548 662.132 60.22 668.244 60.22C672.852 60.22 676.9 60.972 680.388 62.476C683.908 63.98 686.516 66.444 688.212 69.868C689.14 71.692 689.7 73.564 689.892 75.484C690.084 77.372 690.18 79.436 690.18 81.676V113.5H680.052V102.268L681.732 104.092C679.396 107.836 676.66 110.588 673.524 112.348C670.42 114.076 666.532 114.94 661.86 114.94ZM664.164 105.724C666.788 105.724 669.028 105.26 670.884 104.332C672.74 103.404 674.212 102.268 675.3 100.924C676.42 99.58 677.172 98.316 677.556 97.132C678.164 95.66 678.5 93.98 678.564 92.092C678.66 90.172 678.708 88.62 678.708 87.436L682.26 88.492C678.772 89.036 675.78 89.516 673.284 89.932C670.788 90.348 668.644 90.748 666.852 91.132C665.06 91.484 663.476 91.884 662.1 92.332C660.756 92.812 659.62 93.372 658.692 94.012C657.764 94.652 657.044 95.388 656.532 96.22C656.052 97.052 655.812 98.028 655.812 99.148C655.812 100.428 656.132 101.564 656.772 102.556C657.412 103.516 658.34 104.284 659.556 104.86C660.804 105.436 662.34 105.724 664.164 105.724Z" fill="url(#paint3_linear_334_238)"/>
<path d="M211.48 169.5V123.42H219.192V144.796L237.592 123.42H247.064L227.256 146.012L248.408 169.5H238.616L219.192 147.996V169.5H211.48ZM261.139 170.46C257.683 170.46 254.664 169.681 252.083 168.124C249.502 166.567 247.496 164.423 246.067 161.692C244.659 158.94 243.955 155.783 243.955 152.22C243.955 148.593 244.68 145.415 246.131 142.684C247.582 139.953 249.598 137.82 252.179 136.284C254.76 134.748 257.747 133.98 261.139 133.98C264.616 133.98 267.646 134.759 270.227 136.316C272.808 137.873 274.814 140.028 276.243 142.78C277.672 145.511 278.387 148.657 278.387 152.22C278.387 155.804 277.662 158.972 276.211 161.724C274.782 164.455 272.776 166.599 270.195 168.156C267.614 169.692 264.595 170.46 261.139 170.46ZM261.139 163.228C264.211 163.228 266.494 162.204 267.987 160.156C269.48 158.108 270.227 155.463 270.227 152.22C270.227 148.871 269.47 146.204 267.955 144.22C266.44 142.215 264.168 141.212 261.139 141.212C259.07 141.212 257.363 141.681 256.019 142.62C254.696 143.537 253.715 144.828 253.075 146.492C252.435 148.135 252.115 150.044 252.115 152.22C252.115 155.569 252.872 158.247 254.387 160.252C255.923 162.236 258.174 163.228 261.139 163.228ZM280.958 169.5V134.94H287.774V143.356L286.942 142.268C287.368 141.116 287.934 140.071 288.638 139.132C289.363 138.172 290.227 137.383 291.23 136.764C292.083 136.188 293.022 135.74 294.046 135.42C295.091 135.079 296.158 134.876 297.246 134.812C298.334 134.727 299.39 134.769 300.414 134.94V142.14C299.39 141.841 298.206 141.745 296.862 141.852C295.539 141.959 294.344 142.332 293.278 142.972C292.211 143.548 291.336 144.284 290.654 145.18C289.992 146.076 289.502 147.1 289.182 148.252C288.862 149.383 288.702 150.609 288.702 151.932V169.5H280.958ZM310.891 170.46C308.395 170.46 306.283 169.991 304.555 169.052C302.827 168.092 301.515 166.823 300.619 165.244C299.745 163.665 299.307 161.927 299.307 160.028C299.307 158.364 299.585 156.871 300.139 155.548C300.694 154.204 301.547 153.052 302.699 152.092C303.851 151.111 305.345 150.311 307.179 149.692C308.566 149.244 310.187 148.839 312.043 148.476C313.921 148.113 315.947 147.783 318.123 147.484C320.321 147.164 322.614 146.823 325.003 146.46L322.251 148.028C322.273 145.639 321.739 143.879 320.651 142.748C319.563 141.617 317.729 141.052 315.147 141.052C313.59 141.052 312.086 141.415 310.635 142.14C309.185 142.865 308.171 144.113 307.595 145.884L300.555 143.676C301.409 140.753 303.03 138.407 305.419 136.636C307.83 134.865 311.073 133.98 315.147 133.98C318.219 133.98 320.918 134.481 323.243 135.484C325.59 136.487 327.329 138.129 328.459 140.412C329.078 141.628 329.451 142.876 329.579 144.156C329.707 145.415 329.771 146.791 329.771 148.284V169.5H323.019V162.012L324.139 163.228C322.582 165.724 320.758 167.559 318.667 168.732C316.598 169.884 314.006 170.46 310.891 170.46ZM312.427 164.316C314.177 164.316 315.67 164.007 316.907 163.388C318.145 162.769 319.126 162.012 319.851 161.116C320.598 160.22 321.099 159.377 321.355 158.588C321.761 157.607 321.985 156.487 322.027 155.228C322.091 153.948 322.123 152.913 322.123 152.124L324.491 152.828C322.166 153.191 320.171 153.511 318.507 153.788C316.843 154.065 315.414 154.332 314.219 154.588C313.025 154.823 311.969 155.089 311.051 155.388C310.155 155.708 309.398 156.081 308.779 156.508C308.161 156.935 307.681 157.425 307.339 157.98C307.019 158.535 306.859 159.185 306.859 159.932C306.859 160.785 307.073 161.543 307.499 162.204C307.926 162.844 308.545 163.356 309.355 163.74C310.187 164.124 311.211 164.316 312.427 164.316ZM333.559 169.5L333.623 123.42H341.431V151.58L354.071 134.94H363.703L350.295 152.22L364.855 169.5H354.647L341.431 152.86V169.5H333.559ZM377.045 169.5V168.444L395.349 141.692H378.901V134.94H407.349V136.028L389.109 162.748H406.581V169.5H377.045ZM417.617 170.46C415.121 170.46 413.009 169.991 411.281 169.052C409.553 168.092 408.241 166.823 407.345 165.244C406.47 163.665 406.033 161.927 406.033 160.028C406.033 158.364 406.31 156.871 406.865 155.548C407.419 154.204 408.273 153.052 409.425 152.092C410.577 151.111 412.07 150.311 413.905 149.692C415.291 149.244 416.913 148.839 418.769 148.476C420.646 148.113 422.673 147.783 424.849 147.484C427.046 147.164 429.339 146.823 431.729 146.46L428.977 148.028C428.998 145.639 428.465 143.879 427.377 142.748C426.289 141.617 424.454 141.052 421.873 141.052C420.315 141.052 418.811 141.415 417.361 142.14C415.91 142.865 414.897 144.113 414.321 145.884L407.281 143.676C408.134 140.753 409.755 138.407 412.145 136.636C414.555 134.865 417.798 133.98 421.873 133.98C424.945 133.98 427.643 134.481 429.969 135.484C432.315 136.487 434.054 138.129 435.185 140.412C435.803 141.628 436.177 142.876 436.305 144.156C436.433 145.415 436.497 146.791 436.497 148.284V169.5H429.745V162.012L430.865 163.228C429.307 165.724 427.483 167.559 425.393 168.732C423.323 169.884 420.731 170.46 417.617 170.46ZM419.153 164.316C420.902 164.316 422.395 164.007 423.633 163.388C424.87 162.769 425.851 162.012 426.577 161.116C427.323 160.22 427.825 159.377 428.081 158.588C428.486 157.607 428.71 156.487 428.753 155.228C428.817 153.948 428.849 152.913 428.849 152.124L431.217 152.828C428.891 153.191 426.897 153.511 425.233 153.788C423.569 154.065 422.139 154.332 420.945 154.588C419.75 154.823 418.694 155.089 417.777 155.388C416.881 155.708 416.123 156.081 415.505 156.508C414.886 156.935 414.406 157.425 414.065 157.98C413.745 158.535 413.585 159.185 413.585 159.932C413.585 160.785 413.798 161.543 414.225 162.204C414.651 162.844 415.27 163.356 416.081 163.74C416.913 164.124 417.937 164.316 419.153 164.316ZM457.013 169.5V123.42H464.725V144.796L483.125 123.42H492.597L472.789 146.012L493.941 169.5H484.149L464.725 147.996V169.5H457.013ZM506.671 170.46C503.215 170.46 500.197 169.681 497.615 168.124C495.034 166.567 493.029 164.423 491.599 161.692C490.191 158.94 489.487 155.783 489.487 152.22C489.487 148.593 490.213 145.415 491.663 142.684C493.114 139.953 495.13 137.82 497.711 136.284C500.293 134.748 503.279 133.98 506.671 133.98C510.149 133.98 513.178 134.759 515.759 136.316C518.341 137.873 520.346 140.028 521.775 142.78C523.205 145.511 523.919 148.657 523.919 152.22C523.919 155.804 523.194 158.972 521.743 161.724C520.314 164.455 518.309 166.599 515.727 168.156C513.146 169.692 510.127 170.46 506.671 170.46ZM506.671 163.228C509.743 163.228 512.026 162.204 513.519 160.156C515.013 158.108 515.759 155.463 515.759 152.22C515.759 148.871 515.002 146.204 513.487 144.22C511.973 142.215 509.701 141.212 506.671 141.212C504.602 141.212 502.895 141.681 501.551 142.62C500.229 143.537 499.247 144.828 498.607 146.492C497.967 148.135 497.647 150.044 497.647 152.22C497.647 155.569 498.405 158.247 499.919 160.252C501.455 162.236 503.706 163.228 506.671 163.228ZM526.49 169.5V134.94H533.306V143.356L532.474 142.268C532.901 141.116 533.466 140.071 534.17 139.132C534.895 138.172 535.759 137.383 536.762 136.764C537.615 136.188 538.554 135.74 539.578 135.42C540.623 135.079 541.69 134.876 542.778 134.812C543.866 134.727 544.922 134.769 545.946 134.94V142.14C544.922 141.841 543.738 141.745 542.394 141.852C541.071 141.959 539.877 142.332 538.81 142.972C537.743 143.548 536.869 144.284 536.186 145.18C535.525 146.076 535.034 147.1 534.714 148.252C534.394 149.383 534.234 150.609 534.234 151.932V169.5H526.49ZM556.424 170.46C553.928 170.46 551.816 169.991 550.088 169.052C548.36 168.092 547.048 166.823 546.152 165.244C545.277 163.665 544.84 161.927 544.84 160.028C544.84 158.364 545.117 156.871 545.672 155.548C546.227 154.204 547.08 153.052 548.232 152.092C549.384 151.111 550.877 150.311 552.712 149.692C554.099 149.244 555.72 148.839 557.576 148.476C559.453 148.113 561.48 147.783 563.656 147.484C565.853 147.164 568.147 146.823 570.536 146.46L567.784 148.028C567.805 145.639 567.272 143.879 566.184 142.748C565.096 141.617 563.261 141.052 560.68 141.052C559.123 141.052 557.619 141.415 556.168 142.14C554.717 142.865 553.704 144.113 553.128 145.884L546.088 143.676C546.941 140.753 548.563 138.407 550.952 136.636C553.363 134.865 556.605 133.98 560.68 133.98C563.752 133.98 566.451 134.481 568.776 135.484C571.123 136.487 572.861 138.129 573.992 140.412C574.611 141.628 574.984 142.876 575.112 144.156C575.24 145.415 575.304 146.791 575.304 148.284V169.5H568.552V162.012L569.672 163.228C568.115 165.724 566.291 167.559 564.2 168.732C562.131 169.884 559.539 170.46 556.424 170.46ZM557.96 164.316C559.709 164.316 561.203 164.007 562.44 163.388C563.677 162.769 564.659 162.012 565.384 161.116C566.131 160.22 566.632 159.377 566.888 158.588C567.293 157.607 567.517 156.487 567.56 155.228C567.624 153.948 567.656 152.913 567.656 152.124L570.024 152.828C567.699 153.191 565.704 153.511 564.04 153.788C562.376 154.065 560.947 154.332 559.752 154.588C558.557 154.823 557.501 155.089 556.584 155.388C555.688 155.708 554.931 156.081 554.312 156.508C553.693 156.935 553.213 157.425 552.872 157.98C552.552 158.535 552.392 159.185 552.392 159.932C552.392 160.785 552.605 161.543 553.032 162.204C553.459 162.844 554.077 163.356 554.888 163.74C555.72 164.124 556.744 164.316 557.96 164.316ZM579.091 169.5L579.155 123.42H586.963V151.58L599.603 134.94H609.235L595.827 152.22L610.387 169.5H600.179L586.963 152.86V169.5H579.091ZM623.752 170.46C620.296 170.46 617.277 169.681 614.696 168.124C612.114 166.567 610.109 164.423 608.68 161.692C607.272 158.94 606.568 155.783 606.568 152.22C606.568 148.593 607.293 145.415 608.744 142.684C610.194 139.953 612.21 137.82 614.792 136.284C617.373 134.748 620.36 133.98 623.752 133.98C627.229 133.98 630.258 134.759 632.84 136.316C635.421 137.873 637.426 140.028 638.856 142.78C640.285 145.511 641 148.657 641 152.22C641 155.804 640.274 158.972 638.824 161.724C637.394 164.455 635.389 166.599 632.808 168.156C630.226 169.692 627.208 170.46 623.752 170.46ZM623.752 163.228C626.824 163.228 629.106 162.204 630.6 160.156C632.093 158.108 632.84 155.463 632.84 152.22C632.84 148.871 632.082 146.204 630.568 144.22C629.053 142.215 626.781 141.212 623.752 141.212C621.682 141.212 619.976 141.681 618.632 142.62C617.309 143.537 616.328 144.828 615.688 146.492C615.048 148.135 614.728 150.044 614.728 152.22C614.728 155.569 615.485 158.247 617 160.252C618.536 162.236 620.786 163.228 623.752 163.228ZM685.074 169.5V148.508C685.074 146.14 684.487 144.295 683.314 142.972C682.141 141.628 680.551 140.956 678.546 140.956C677.309 140.956 676.199 141.244 675.218 141.82C674.237 142.375 673.458 143.207 672.882 144.316C672.306 145.404 672.018 146.705 672.018 148.22L668.594 146.204C668.573 143.815 669.106 141.713 670.194 139.9C671.303 138.065 672.797 136.636 674.674 135.612C676.551 134.588 678.642 134.076 680.946 134.076C684.765 134.076 687.687 135.228 689.714 137.532C691.762 139.815 692.786 142.823 692.786 146.556V169.5H685.074ZM643.506 169.5V134.94H650.322V145.66H651.282V169.5H643.506ZM664.338 169.5V148.604C664.338 146.193 663.751 144.316 662.578 142.972C661.405 141.628 659.805 140.956 657.778 140.956C655.815 140.956 654.237 141.628 653.042 142.972C651.869 144.316 651.282 146.065 651.282 148.22L647.826 145.916C647.826 143.676 648.381 141.66 649.49 139.868C650.599 138.076 652.093 136.668 653.97 135.644C655.869 134.599 657.991 134.076 660.338 134.076C662.919 134.076 665.074 134.631 666.802 135.74C668.551 136.828 669.853 138.321 670.706 140.22C671.581 142.097 672.018 144.22 672.018 146.588V169.5H664.338Z" fill="url(#paint4_linear_334_238)"/>
<defs>
<linearGradient id="paint0_linear_334_238" x1="7.09668" y1="70.7578" x2="192.911" y2="70.7578" gradientUnits="userSpaceOnUse">
<stop stop-color="#7099E6"/>
<stop offset="1" stop-color="#70AFE6"/>
</linearGradient>
<linearGradient id="paint1_linear_334_238" x1="25.1562" y1="141.017" x2="174.843" y2="141.017" gradientUnits="userSpaceOnUse">
<stop stop-color="#7099E6"/>
<stop offset="1" stop-color="#70AFE6"/>
</linearGradient>
<linearGradient id="paint2_linear_334_238" x1="35.5146" y1="161.63" x2="56.7421" y2="161.63" gradientUnits="userSpaceOnUse">
<stop stop-color="#7099E6"/>
<stop offset="1" stop-color="#70AFE6"/>
</linearGradient>
<linearGradient id="paint3_linear_334_238" x1="200" y1="77" x2="690" y2="77" gradientUnits="userSpaceOnUse">
<stop stop-color="#7099E6"/>
<stop offset="1" stop-color="#70AFE6"/>
</linearGradient>
<linearGradient id="paint4_linear_334_238" x1="207" y1="145" x2="697" y2="145" gradientUnits="userSpaceOnUse">
<stop stop-color="#7099E6"/>
<stop offset="1" stop-color="#70AFE6"/>
</linearGradient>
</defs>
</svg>
